<?xml version='1.0' encoding='UTF-8'?>
<svg xmlns="http://www.w3.org/2000/svg" id="Layer_1" version="1.1" viewBox="0 0 90 90">
  
  <defs>
    <style>
      .st0 {
        fill: #d97757;
      }

      .st1 {
        fill: #141413;
      }

      .st2 {
        fill: #f0d2c6;
      }
    </style>
  </defs>
  <rect class="st2" width="90" height="90" rx="6" ry="6" />
  <g>
    <rect class="st1" x="59.3" y="60.4" width="1.1" height="1.7" />
    <rect class="st1" x="59.3" y="62.9" width="1" height="5.8" />
    <path class="st1" d="M48.4,62.9v5.8h1v-3.3c0-.3,0-.6.2-.9.1-.2.3-.4.6-.6.2-.1.5-.2.9-.2h.8v-.9h-.6c-.4,0-.8,0-1.1.3-.3.2-.6.4-.7.8,0,0,0,.2-.1.3v-1.2h-.9Z" />
    <path class="st1" d="M39.5,64.5c-.4-.2-.9-.4-1.5-.5-.5,0-.8-.2-1.1-.3-.3-.1-.4-.3-.5-.4-.1-.2-.2-.4-.2-.6s0-.4.2-.6c.1-.2.3-.3.5-.4.2-.1.5-.2.8-.2s.5,0,.8.1c.2,0,.4.2.5.4.1.2.2.4.3.6h1c0-.4-.2-.8-.4-1.1-.2-.3-.5-.6-.9-.7-.4-.2-.8-.3-1.3-.3s-.9,0-1.3.3c-.4.2-.7.5-.9.8s-.3.7-.3,1.1,0,.8.3,1.1c.2.3.4.5.8.7.4.2.9.4,1.5.5.5,0,.8.2,1.1.3.3.1.5.3.6.5.1.2.2.4.2.7s0,.5-.2.7c-.1.2-.3.4-.6.5-.3.1-.6.2-.9.2s-.7,0-.9-.2c-.3-.1-.5-.3-.6-.5-.2-.2-.2-.5-.3-.8h-1.1c0,.5.2.9.4,1.3.2.4.6.6,1,.8.4.2.9.3,1.5.3s1-.1,1.4-.3c.4-.2.8-.5,1-.9.2-.4.4-.8.4-1.2s0-.8-.3-1.1c-.2-.3-.5-.6-.8-.8Z" />
    <path class="st1" d="M64.5,68.8c.4,0,.8,0,1.2-.2.4-.1.6-.4.9-.6.2-.3.4-.6.4-1h-1c0,.3-.2.5-.5.7-.2.2-.6.2-.9.2s-.7,0-.9-.3c-.3-.2-.5-.4-.6-.8-.1-.3-.2-.7-.2-1.1s0-.8.2-1.1c.1-.3.4-.6.6-.8.3-.2.6-.3.9-.3s.7,0,.9.3c.3.2.4.4.5.7h1c0-.4-.2-.7-.4-1-.2-.3-.5-.5-.9-.6-.3-.1-.7-.2-1.2-.2s-1,.1-1.4.4c-.4.3-.8.6-1,1.1-.2.5-.4,1-.4,1.6s.1,1.1.4,1.6c.2.5.6.8,1,1.1.4.3.9.4,1.4.4Z" />
    <path class="st1" d="M39.809,52.064C39.718,51.518,39.491,51.064,39.127,50.7C38.764,50.291,38.355,49.973,37.809,49.791C37.264,49.564,36.673,49.473,36.036,49.473C35.4,49.473,34.536,49.655,33.855,50.018C33.218,50.382,32.673,50.882,32.309,51.518C31.945,52.155,31.764,52.882,31.764,53.655C31.764,54.427,31.945,55.155,32.309,55.791C32.673,56.427,33.218,56.927,33.855,57.291C34.536,57.655,35.4,57.836,36.036,57.836C36.673,57.836,37.264,57.745,37.809,57.518C38.355,57.336,38.764,57.018,39.127,56.609C39.491,56.245,39.718,55.791,39.809,55.245L38.127,55.245C38.036,55.518,37.9,55.7,37.718,55.927C37.536,56.155,37.264,56.291,36.991,56.382C36.673,56.473,36.536,56.518,35.991,56.518C35.445,56.518,34.991,56.382,34.582,56.155C34.173,55.927,33.855,55.564,33.627,55.155C33.4,54.745,33.264,54.291,33.264,53.7C33.264,53.018,33.4,52.564,33.627,52.155C33.855,51.745,34.173,51.382,34.582,51.155C34.991,50.927,35.445,50.791,35.991,50.791C36.536,50.791,36.673,50.836,36.991,50.927C37.264,51.018,37.536,51.155,37.718,51.382C37.9,51.609,38.036,51.791,38.127,52.064ZM45.809,56.859C46.036,56.541,46.218,56.223,46.264,55.814L44.855,55.814C44.809,56.086,44.627,56.268,44.4,56.45C44.173,56.586,43.855,56.677,43.536,56.677C43.218,56.677,42.945,56.632,42.673,56.495C42.445,56.359,42.264,56.177,42.127,55.905C42.036,55.723,41.991,55.495,41.991,55.268L46.309,55.268L46.309,54.859C46.309,54.314,46.173,53.814,45.945,53.359C45.718,52.905,45.355,52.586,44.9,52.314C44.445,52.041,43.991,51.95,43.4,51.95C42.809,51.95,42.355,52.086,41.9,52.314C41.445,52.586,41.127,52.905,40.855,53.359C40.627,53.814,40.491,54.314,40.491,54.859C40.491,55.405,40.627,55.95,40.855,56.405C41.127,56.859,41.445,57.223,41.945,57.45C42.4,57.677,42.945,57.814,43.536,57.814C44.127,57.814,44.491,57.723,44.9,57.586C45.309,57.45,45.627,57.177,45.855,56.905ZM42.627,53.223C42.855,53.086,43.082,53.041,43.4,53.041C43.718,53.041,43.945,53.086,44.127,53.223C44.355,53.359,44.491,53.495,44.627,53.723C44.673,53.859,44.718,53.995,44.764,54.132L42.036,54.132C42.036,53.995,42.082,53.905,42.127,53.814C42.264,53.586,42.4,53.359,42.627,53.268ZM48.536,54.518C48.536,54.245,48.582,53.973,48.673,53.791C48.764,53.609,48.9,53.473,49.082,53.382C49.264,53.291,49.536,53.245,49.809,53.245L51.173,53.245L51.173,52.064L50.309,52.064C49.9,52.064,49.536,52.155,49.218,52.336C48.9,52.518,48.627,52.791,48.491,53.155C48.491,53.155,48.491,53.155,48.491,53.155L48.491,52.018L47.127,52.018L47.127,57.7L48.536,57.7L48.536,54.518ZM54.218,56.405C54.127,56.314,54.127,56.223,54.127,56.086L54.127,53.223L55.991,53.223L55.991,52.041L54.127,52.041L54.127,50.45L52.718,50.45L52.718,52.041L51.627,52.041L51.627,53.223L52.718,53.223L52.718,56.132C52.718,56.45,52.809,56.723,52.945,56.95C53.082,57.177,53.309,57.405,53.536,57.495C53.809,57.632,54.082,57.677,54.4,57.677L56.218,57.677L56.218,56.495L54.536,56.495C54.4,56.495,54.264,56.495,54.218,56.359ZM57.309,52.018L58.718,52.018L58.718,57.7L57.309,57.7ZM57.309,49.518L58.718,49.518L58.718,51.336L57.309,51.336ZM60.545,57.7L61.945,57.7L61.945,53L63.545,53L63.545,51.8L61.945,51.8L61.945,51.2C61.945,51,61.945,50.9,62.045,50.8C62.045,50.8,62.245,50.7,62.445,50.7L63.845,50.7L63.845,49.5L62.145,49.5C61.845,49.5,61.545,49.5,61.245,49.7C60.945,49.8,60.745,50,60.645,50.3C60.545,50.5,60.445,50.8,60.445,51.2L60.445,52L59.445,52L59.445,53.2L60.445,53.2L60.445,57.9ZM64.3,52.018L65.709,52.018L65.709,57.7L64.3,57.7ZM64.3,49.518L65.709,49.518L65.709,51.336L64.3,51.336ZM71.982,56.859C72.209,56.541,72.391,56.223,72.436,55.814L71.027,55.814C70.982,56.086,70.8,56.268,70.573,56.45C70.345,56.586,70.027,56.677,69.709,56.677C69.391,56.677,69.118,56.632,68.845,56.495C68.618,56.359,68.436,56.177,68.3,55.905C68.209,55.723,68.164,55.495,68.164,55.268L72.482,55.268L72.482,54.859C72.482,54.314,72.345,53.814,72.118,53.359C71.891,52.905,71.527,52.586,71.073,52.314C70.618,52.041,70.164,51.95,69.573,51.95C68.982,51.95,68.527,52.086,68.073,52.314C67.618,52.586,67.3,52.905,67.027,53.359C66.8,53.814,66.664,54.314,66.664,54.859C66.664,55.405,66.8,55.95,67.027,56.405C67.3,56.859,67.618,57.223,68.118,57.45C68.573,57.677,69.118,57.814,69.709,57.814C70.3,57.814,70.664,57.723,71.073,57.586C71.482,57.45,71.8,57.177,72.027,56.905ZM68.8,53.223C69.027,53.086,69.255,53.041,69.573,53.041C69.891,53.041,70.118,53.086,70.3,53.223C70.527,53.359,70.664,53.495,70.8,53.723C70.845,53.859,70.891,53.995,70.936,54.132L68.209,54.132C68.209,53.995,68.255,53.905,68.3,53.814C68.436,53.586,68.573,53.359,68.8,53.268ZM74.5,57.4C74.9,57.7,75.3,57.8,75.8,57.8C76.3,57.8,76.7,57.7,77.1,57.4C77.4,57.2,77.7,56.8,77.9,56.4L77.9,57.6L79.2,57.6L79.2,49.4L77.8,49.4L77.8,52.8C77.6,52.5,77.4,52.2,77.1,52.1C76.7,51.8,76.3,51.7,75.8,51.7C75.3,51.7,74.9,51.8,74.5,52.1C74.1,52.4,73.8,52.7,73.6,53.2C73.4,53.7,73.3,54.2,73.3,54.8C73.3,55.4,73.4,55.9,73.6,56.4C73.8,56.9,74.1,57.2,74.5,57.5ZM74.8,53.8C74.9,53.5,75.1,53.3,75.3,53.2C75.5,53,75.8,53,76.1,53C76.4,53,76.7,53,76.9,53.2C77.1,53.4,77.3,53.6,77.4,53.8C77.5,54.1,77.6,54.4,77.6,54.8C77.6,55.2,77.6,55.5,77.4,55.8C77.3,56.1,77.1,56.3,76.9,56.4C76.7,56.6,76.4,56.6,76.1,56.6C75.8,56.6,75.5,56.6,75.3,56.4C75.1,56.2,74.9,56,74.8,55.8C74.7,55.5,74.6,55.2,74.6,54.8C74.6,54.4,74.6,54.1,74.8,53.8Z" /><path class="st1" d="M78.6,73.8c-.4,0-.8,0-1.1.3-.3.2-.6.4-.7.8,0,0,0,.2-.1.3v-1.2h-.9v5.8h1v-3.3c0-.3,0-.6.2-.9.1-.2.3-.4.6-.6.2-.1.5-.2.9-.2h.8v-.9h-.6Z" />
    <path class="st1" d="M66.6,74c-.3-.2-.7-.3-1.1-.3s-.8,0-1.1.3c-.3.2-.6.5-.8.8,0,0,0,.1,0,.2v-1.2h-.9v5.8h1v-3.4c0-.3,0-.6.2-.8.1-.2.3-.4.6-.6.2-.1.5-.2.8-.2s.5,0,.7.2c.2.1.4.3.5.5.1.2.2.5.2.7v3.6h1v-3.9c0-.4,0-.7-.3-1-.2-.3-.4-.6-.7-.7Z" />
    <polygon class="st1" points="55.8 68.7 58.1 62.9 57.1 62.9 55.3 67.7 53.5 62.9 52.5 62.9 54.7 68.7 55.8 68.7" />
    <path class="st1" d="M70.8,68.8c.5,0,.9,0,1.2-.2.4-.2.7-.4.9-.6.2-.3.4-.6.5-1h-1c0,.3-.3.5-.5.7-.3.2-.6.2-1,.2s-.7,0-.9-.3c-.3-.2-.5-.4-.6-.7-.1-.3-.2-.6-.2-.9h4.4v-.4c0-.6-.1-1.1-.3-1.5-.2-.4-.5-.8-1-1-.4-.2-.9-.4-1.4-.4s-1,.1-1.4.4c-.4.3-.7.6-1,1.1-.2.5-.4,1-.4,1.5s.1,1.1.4,1.6c.2.5.6.8,1,1.1.4.3.9.4,1.5.4ZM69.8,63.9c.3-.2.6-.3.9-.3s.6,0,.8.2c.2.1.4.3.6.6.1.2.2.4.2.7h-3.2c0-.2,0-.4.2-.5.1-.3.3-.6.6-.7Z" />
    <path class="st1" d="M55,74.1c-.3.2-.6.4-.7.8,0,0,0,.2-.1.3v-1.2h-.9v5.8h1v-3.3c0-.3,0-.6.2-.9.1-.2.3-.4.6-.6.2-.1.5-.2.9-.2h.8v-.9h-.6c-.4,0-.8,0-1.1.3Z" />
    <path class="st1" d="M59.6,78.6c-.1-.1-.2-.3-.2-.6v-3.3h1.7v-.9h-1.7v-1.6h-1v1.6h-1.1v.9h1.1v3.3c0,.3,0,.6.2.8.1.2.3.4.6.6.2.1.5.2.9.2h1.4v-.9h-1.3c-.2,0-.4,0-.5-.2Z" />
    <path class="st1" d="M73.1,74.1c-.4-.2-.9-.4-1.4-.4s-1,.1-1.4.4c-.4.3-.7.6-1,1.1-.2.5-.4,1-.4,1.5s.1,1.1.4,1.6c.2.5.6.8,1,1.1.4.3.9.4,1.5.4s.9,0,1.2-.2c.4-.2.7-.4.9-.6.2-.3.4-.6.5-1h-1c0,.3-.3.5-.5.7-.3.2-.6.2-1,.2s-.7,0-.9-.3c-.3-.2-.5-.4-.6-.7-.1-.3-.2-.6-.2-.9h4.4v-.4c0-.6-.1-1.1-.3-1.5-.2-.4-.5-.8-1-1ZM70.9,74.9c.3-.2.6-.3.9-.3s.6,0,.8.2c.2.1.4.3.6.6.1.2.2.4.2.7h-3.2c0-.2,0-.4.2-.5.1-.3.3-.6.6-.7Z" />
    <path class="st1" d="M51.4,78.7c0,0,0-.1,0-.3v-2.6c0-.4,0-.8-.3-1.1-.2-.3-.4-.6-.8-.7-.3-.2-.7-.3-1.2-.3s-.8,0-1.1.2c-.3.1-.6.4-.8.6-.2.3-.3.6-.3.9h1c0-.3.2-.5.4-.7.2-.2.5-.2.9-.2s.7.1.9.3c.2.2.3.5.3.9v.2h-1.4c-.7.2-1.3.4-1.7.7-.4.3-.6.8-.6,1.3s0,.6.2.9c.2.3.4.5.7.6.3.1.6.2,1,.2s.8-.1,1.2-.3c.3-.2.6-.5.8-.9,0,0,0,0,0,0h0c0,.3,0,.4.1.6,0,.2.2.3.4.4.2,0,.3.1.5.1h.6v-.9h-.4c-.1,0-.2,0-.2,0ZM50.1,78c-.1.3-.3.5-.6.7-.2.2-.5.2-.8.2s-.4,0-.6-.1c-.2,0-.3-.2-.4-.3,0-.1-.1-.3-.1-.5,0-.3.1-.6.3-.7.2-.2.6-.3,1.1-.3h1.3c0-.1,0,0,0,0,0,.4,0,.7-.2,1Z" />
    <path class="st1" d="M46,67c0,.3-.3.5-.5.7-.3.2-.6.2-1,.2s-.7,0-.9-.3c-.3-.2-.5-.4-.6-.7-.1-.3-.2-.6-.2-.9h4.4v-.4c0-.6-.1-1.1-.3-1.5-.2-.4-.5-.8-1-1-.4-.2-.9-.4-1.4-.4s-1,.1-1.4.4c-.4.3-.7.6-1,1.1-.2.5-.4,1-.4,1.5s.1,1.1.4,1.6c.2.5.6.8,1,1.1.4.3.9.4,1.5.4s.9,0,1.2-.2c.4-.2.7-.4.9-.6.2-.3.4-.6.5-1h-1ZM43.4,63.9c.3-.2.6-.3.9-.3s.6,0,.8.2c.2.1.4.3.6.6.1.2.2.4.2.7h-3.2c0-.2,0-.4.2-.5.1-.3.3-.6.6-.7Z" />
    <path class="st1" d="M77.9,68.6c.4-.2.6-.4.8-.6.2-.3.3-.6.3-.9s0-.6-.2-.8c-.1-.2-.4-.4-.7-.6-.3-.1-.7-.3-1.2-.3-.3,0-.6-.1-.8-.2-.2,0-.3-.2-.4-.3,0-.1-.1-.2-.1-.4,0-.2,0-.4.3-.6.2-.1.5-.2.8-.2s.6,0,.8.2c.2.2.3.4.3.7h1c0-.4-.1-.7-.3-.9-.2-.3-.4-.5-.8-.6-.3-.2-.7-.2-1.1-.2s-.8,0-1.1.2c-.3.1-.6.4-.8.6-.2.3-.3.5-.3.9s0,.6.2.8c.1.2.4.4.6.5.3.1.7.2,1.1.3.4,0,.7.1.9.2.2,0,.4.2.4.3,0,.1.1.3.1.4,0,.3-.1.5-.4.6-.2.2-.6.2-1,.2s-.7,0-1-.3c-.2-.2-.4-.4-.4-.8h-1c0,.4.1.7.3,1,.2.3.5.5.8.7.3.2.7.2,1.2.2s.8,0,1.2-.2Z" />
    <path class="st1" d="M45.4,71.9c-.3-.2-.7-.3-1.2-.3h-3.4v8.1h1v-3.5h2.3c.4,0,.8,0,1.2-.3.3-.2.6-.5.8-.8.2-.3.3-.7.3-1.2s0-.8-.3-1.2c-.2-.3-.5-.6-.8-.8ZM45.2,74.6c-.1.2-.3.4-.5.5-.2.1-.4.2-.7.2h-2.2v-2.6h2.2c.3,0,.5,0,.7.2.2.1.4.3.5.5.1.2.2.4.2.7s0,.5-.2.7Z" />
  </g>
  <path class="st1" d="M34.8,24.1c-1.2,0-2.2-.2-3.2-.7-.9-.5-1.6-1.1-2.2-2-.5-.9-.8-1.8-.8-2.9s.3-2.2.8-3.1c.5-.9,1.3-1.6,2.2-2.1.9-.5,2-.8,3.2-.8s1.4,0,2.2.2c.7.2,1.4.4,1.9.7v2.5h-.7c-.2-.9-.6-1.6-1.1-2-.6-.4-1.3-.6-2.3-.6s-1.7.2-2.3.6c-.6.4-1.1,1-1.4,1.7-.3.7-.4,1.6-.4,2.6s.2,1.8.5,2.6c.3.8.8,1.4,1.5,1.8.6.4,1.4.7,2.3.7s1.1-.1,1.6-.4c.4-.2.8-.6,1.1-1,.3-.4.6-.9.9-1.6h.7l-.5,2.7c-.5.3-1.2.6-1.9.8-.7.2-1.5.3-2.2.3ZM40,23.3c.3,0,.5,0,.7-.1.2,0,.3-.1.4-.2,0-.1.1-.2.1-.4v-8.3l-1.2-.4v-.5l2.4-.9h.6v10.1c0,.2,0,.3.1.4,0,.1.2.2.4.2.2,0,.4.1.7.1v.7h-4.2v-.7ZM47,24.1c-.4,0-.8,0-1.2-.2-.3-.2-.6-.4-.8-.7-.2-.3-.3-.6-.3-1,0-.6.2-1,.5-1.4.4-.4.9-.7,1.7-.9l2.8-.8v-.8c0-.5-.1-1-.4-1.2-.3-.3-.6-.4-1.1-.4s-.8.1-1,.4c-.3.3-.4.6-.4,1.1v.7h-1.2c-.1,0-.3-.2-.3-.4,0-.2-.1-.3-.1-.5,0-.4.1-.7.4-1,.3-.3.7-.5,1.1-.7.5-.2,1-.3,1.6-.3s1.3.1,1.8.3c.5.2.9.5,1.1.9.3.4.4.9.4,1.5v3.6c0,.2,0,.3.1.4,0,.1.2.2.4.3.2,0,.4.1.7.1v.7c-.4.2-.9.2-1.3.2s-.9-.1-1.2-.3c-.3-.2-.5-.6-.5-1-.4.5-.8.8-1.2,1-.5.2-1,.3-1.5.3ZM47.9,22.9c.3,0,.6,0,1-.2.3-.2.6-.4.9-.7v-2.2l-2.1.6c-.4.1-.6.3-.8.5-.2.2-.3.5-.3.8s0,.4.2.6c.1.2.3.3.5.4.2,0,.4.1.7.1ZM56.2,24.1c-.8,0-1.4-.2-1.8-.6-.4-.4-.6-1-.6-1.8v-3.9l-1.2-.4v-.5l2.4-.8h.6v5.4c0,.5.1.8.4,1.1s.6.3,1.1.3.7,0,1-.2c.4-.1.7-.3,1-.6v-4.2l-1.2-.4v-.5l2.4-.8h.6v5.9c0,.2,0,.3.1.4,0,.1.2.2.4.3.2,0,.4.1.7.2v.7l-2.4.6h-.6v-1.3c-.4.4-.9.8-1.4,1-.5.3-1,.4-1.5.4ZM66.2,24.1c-.7,0-1.3-.2-1.8-.5-.5-.3-1-.7-1.3-1.3-.3-.6-.5-1.2-.5-1.9s.2-1.7.6-2.4c.4-.7.9-1.2,1.6-1.6.7-.4,1.5-.6,2.3-.6s.6,0,.9,0c.3,0,.6.1.9.3v-2.1l-1.2-.4v-.5l2.4-.9h.6v9.5c0,.2,0,.3.1.4,0,.1.2.2.4.3.2,0,.4.1.7.2v.7l-2.4.6h-.6v-1c-.4.4-.8.6-1.2.8-.5.2-.9.3-1.4.3ZM67,22.9c.3,0,.6,0,.9-.2.3-.1.6-.3.9-.5v-4.7c-.5-.4-1-.6-1.6-.6s-1.1.1-1.5.4c-.4.3-.7.6-.9,1.1-.2.5-.3,1-.3,1.6s0,1.1.3,1.5c.2.4.5.8.8,1,.4.2.8.4,1.4.4ZM76.2,24.1c-.7,0-1.4-.2-2-.5-.6-.3-1.1-.8-1.4-1.4-.3-.6-.5-1.3-.5-2s.2-1.5.5-2.1c.3-.6.8-1.1,1.4-1.5.6-.4,1.3-.5,2-.5s1.1.1,1.6.3c.5.2.9.6,1.2,1,.3.4.5.9.7,1.4l-5.5,1.7c.2.7.5,1.2.9,1.6.5.4,1,.6,1.7.6s1.1-.1,1.5-.4c.4-.3.8-.7,1.2-1.2l.6.2c-.1.6-.4,1.1-.8,1.6-.4.4-.8.8-1.3,1-.5.2-1.1.4-1.7.4ZM77.7,18.5c0-.3-.2-.6-.3-.9-.2-.3-.4-.5-.6-.6-.2-.1-.5-.2-.8-.2s-.7.1-1,.3c-.3.2-.5.5-.7.9-.2.4-.2.9-.2,1.4s0,.2,0,.2l3.6-1.1Z" />
  <path class="st0" d="M17.1,25.1l.2-.9.2-1.2.2-1,.2-1.2v-.4c.1,0,0,0,0,0h0s-.9,1.3-.9,1.3l-1.4,1.9-1.1,1.2h-.3c0,.1-.5-.1-.5-.1v-.4s.3-.4.3-.4l1.5-1.9.9-1.2.6-.7h0c0,0,0,0,0,0l-4,2.6h-.7c0,0-.3-.2-.3-.2v-.5s.2-.2.2-.2l1.2-.8,3-1.7v-.2s0,0,0,0h-.7s-1.7,0-1.7,0h-1.5c0,0-1.4-.1-1.4-.1h-.4c0,0-.3-.5-.3-.5v-.2s.3-.2.3-.2h.4s1,.1,1,.1h1.4c0,0,1,.2,1,.2l1.5.2h.3c0-.1,0-.2,0-.2h0c0,0-1.5-1.1-1.5-1.1l-1.6-1.1-.9-.6-.5-.3-.2-.3v-.6c0,0,.3-.5.3-.5h.6s.1,0,.1,0l.6.4,1.2.9,1.6,1.2.2.2h.1c0-.1-.1-.3-.1-.3l-.9-1.5-.9-1.6-.4-.7v-.4c-.1-.1-.2-.3-.2-.5l.5-.6h.3c0,0,.6,0,.6,0l.3.2.4.9.6,1.4,1,1.9.3.6.2.5v.2h.2c0,0,0-1.2,0-1.2l.2-1.3.2-1.7v-.5s.3-.6.3-.6l.5-.3.4.2.3.4v.3s-.2,1.2-.2,1.2l-.4,1.8-.2,1.2h.1l.2-.2.6-.8,1-1.3.5-.5.5-.6.3-.3h.7l.5.7-.2.7-.7.9-.6.7-.8,1.1-.5.9h0c0,0,.1,0,.1,0l1.8-.4,1-.2,1.2-.2.5.2v.2c0,0-.2.5-.2.5l-1.2.3-1.5.3-2.2.5h0s0,0,0,0h1c0,0,.4.1.4.1h2.9c0,.1.5.5.5.5l.3.4v.3s-.8.4-.8.4l-1-.2-2.4-.6-.8-.2h-.1c0,0,.7.7.7.7l1.3,1.1,1.6,1.5v.4c0,0-.1.3-.1.3h-.2s-1.4-1.1-1.4-1.1l-.5-.5-1.2-1h0c0,.1.3.5.3.5l1.5,2.2v.7c0,0,0,.2,0,.2h-.4c0,.1-.4,0-.4,0l-.9-1.2-.9-1.4-.7-1.2h0c0,0-.4,4.6-.4,4.6l-.2.2-.5.2-.4-.3-.2-.5Z" />
</svg>